<mxfile host="eae14384-472f-4be4-973c-67a0166b81a4" modified="2020-10-06T19:14:32.409Z" agent="5.0 (Windows NT 10.0; Win64; x64) AppleWebKit/537.36 (KHTML, like Gecko) Code/1.49.3 Chrome/83.0.4103.122 Electron/9.2.1 Safari/537.36" etag="IC6Y_9av5nkV85PebQEh" version="13.1.3">
    <diagram id="6hGFLwfOUW9BJ-s0fimq" name="Page-1">
        <mxGraphModel dx="1039" dy="574" grid="1" gridSize="10" guides="1" tooltips="1" connect="1" arrows="1" fold="1" page="1" pageScale="1" pageWidth="827" pageHeight="1169" math="0" shadow="0">
            <root>
                <mxCell id="0"/>
                <mxCell id="1" parent="0"/>
                <mxCell id="6" style="edgeStyle=orthogonalEdgeStyle;rounded=0;orthogonalLoop=1;jettySize=auto;html=1;entryX=0;entryY=0.5;entryDx=0;entryDy=0;" parent="1" source="4" target="5" edge="1">
                    <mxGeometry relative="1" as="geometry"/>
                </mxCell>
                <mxCell id="4" value="&lt;span&gt;&lt;font&gt;&lt;span style=&quot;font-size: 14px&quot;&gt;DocumentList&lt;/span&gt;&lt;br&gt;&lt;span style=&quot;font-size: 14px&quot;&gt;(список документов)&lt;/span&gt;&lt;br&gt;&lt;/font&gt;&lt;/span&gt;" style="rounded=0;whiteSpace=wrap;html=1;" parent="1" vertex="1">
                    <mxGeometry x="40" y="200" width="160" height="60" as="geometry"/>
                </mxCell>
                <mxCell id="12" style="edgeStyle=orthogonalEdgeStyle;rounded=0;orthogonalLoop=1;jettySize=auto;html=1;exitX=0.5;exitY=1;exitDx=0;exitDy=0;entryX=0.5;entryY=0;entryDx=0;entryDy=0;" parent="1" source="5" target="10" edge="1">
                    <mxGeometry relative="1" as="geometry"/>
                </mxCell>
                <mxCell id="13" value="Add" style="edgeLabel;html=1;align=center;verticalAlign=middle;resizable=0;points=[];fontSize=15;" parent="12" vertex="1" connectable="0">
                    <mxGeometry x="-0.2429" relative="1" as="geometry">
                        <mxPoint x="-26" as="offset"/>
                    </mxGeometry>
                </mxCell>
                <mxCell id="14" style="edgeStyle=orthogonalEdgeStyle;rounded=0;orthogonalLoop=1;jettySize=auto;html=1;exitX=0.5;exitY=1;exitDx=0;exitDy=0;entryX=0.5;entryY=0;entryDx=0;entryDy=0;" parent="1" source="5" target="9" edge="1">
                    <mxGeometry relative="1" as="geometry">
                        <mxPoint x="480" y="340" as="targetPoint"/>
                    </mxGeometry>
                </mxCell>
                <mxCell id="15" value="Edit" style="edgeLabel;html=1;align=center;verticalAlign=middle;resizable=0;points=[];fontSize=15;" parent="14" vertex="1" connectable="0">
                    <mxGeometry x="-0.2" y="-2" relative="1" as="geometry">
                        <mxPoint x="19" as="offset"/>
                    </mxGeometry>
                </mxCell>
                <mxCell id="5" value="&lt;span style=&quot;font-size: 14px&quot;&gt;Document&lt;/span&gt;&lt;span style=&quot;font-size: 14px&quot;&gt;View&lt;br&gt;(просмотр документа (позиций))&lt;br&gt;&lt;/span&gt;" style="rounded=0;whiteSpace=wrap;html=1;" parent="1" vertex="1">
                    <mxGeometry x="250" y="200" width="220" height="60" as="geometry"/>
                </mxCell>
                <mxCell id="8" style="edgeStyle=orthogonalEdgeStyle;rounded=0;orthogonalLoop=1;jettySize=auto;html=1;exitX=0.5;exitY=1;exitDx=0;exitDy=0;entryX=0.5;entryY=0;entryDx=0;entryDy=0;startArrow=classic;startFill=1;" parent="1" source="7" target="5" edge="1">
                    <mxGeometry relative="1" as="geometry"/>
                </mxCell>
                <mxCell id="7" value="&lt;span style=&quot;font-size: 14px&quot;&gt;DocumentEdit&lt;/span&gt;&lt;br&gt;&lt;span style=&quot;font-size: 14px&quot;&gt;(редактирование полей шапки)&lt;/span&gt;" style="rounded=0;whiteSpace=wrap;html=1;" parent="1" vertex="1">
                    <mxGeometry x="250" y="70" width="220" height="60" as="geometry"/>
                </mxCell>
                <mxCell id="9" value="&lt;span style=&quot;font-size: 14px&quot;&gt;DocumentLineEdit&lt;/span&gt;&lt;br&gt;&lt;span style=&quot;font-size: 14px&quot;&gt;(редактирование позиции)&lt;/span&gt;" style="rounded=0;whiteSpace=wrap;html=1;" parent="1" vertex="1">
                    <mxGeometry x="410" y="370" width="190" height="60" as="geometry"/>
                </mxCell>
                <mxCell id="16" style="edgeStyle=orthogonalEdgeStyle;rounded=0;orthogonalLoop=1;jettySize=auto;html=1;exitX=1;exitY=0.5;exitDx=0;exitDy=0;entryX=0;entryY=0.5;entryDx=0;entryDy=0;" parent="1" source="10" target="9" edge="1">
                    <mxGeometry relative="1" as="geometry"/>
                </mxCell>
                <mxCell id="10" value="&lt;span style=&quot;font-size: 14px&quot;&gt;GoodList&lt;br&gt;(выбор товаров)&lt;br&gt;&lt;/span&gt;" style="rounded=0;whiteSpace=wrap;html=1;" parent="1" vertex="1">
                    <mxGeometry x="140" y="370" width="160" height="60" as="geometry"/>
                </mxCell>
                <mxCell id="21" style="edgeStyle=orthogonalEdgeStyle;rounded=0;orthogonalLoop=1;jettySize=auto;html=1;entryX=0;entryY=0.5;entryDx=0;entryDy=0;fontSize=15;" parent="1" source="4" target="7" edge="1">
                    <mxGeometry relative="1" as="geometry">
                        <mxPoint x="110" y="200" as="sourcePoint"/>
                        <mxPoint x="200" y="110" as="targetPoint"/>
                        <Array as="points">
                            <mxPoint x="100" y="100"/>
                        </Array>
                    </mxGeometry>
                </mxCell>
                <mxCell id="22" value="Create New&amp;nbsp;" style="edgeLabel;html=1;align=center;verticalAlign=middle;resizable=0;points=[];fontSize=17;" parent="21" vertex="1" connectable="0">
                    <mxGeometry y="3" relative="1" as="geometry">
                        <mxPoint x="35" as="offset"/>
                    </mxGeometry>
                </mxCell>
                <mxCell id="23" value="&lt;font style=&quot;font-size: 13px&quot; color=&quot;#ffa41c&quot;&gt;state.documents&lt;/font&gt;" style="text;html=1;resizable=0;autosize=1;align=center;verticalAlign=middle;points=[];fillColor=none;strokeColor=none;rounded=0;" vertex="1" parent="1">
                    <mxGeometry x="40" y="260" width="110" height="20" as="geometry"/>
                </mxCell>
                <mxCell id="24" value="&lt;font style=&quot;font-size: 13px&quot; color=&quot;#ffa41c&quot;&gt;state.forms.documentParams&lt;/font&gt;" style="text;html=1;resizable=0;autosize=1;align=center;verticalAlign=middle;points=[];fillColor=none;strokeColor=none;rounded=0;" vertex="1" parent="1">
                    <mxGeometry x="250" y="50" width="190" height="20" as="geometry"/>
                </mxCell>
            </root>
        </mxGraphModel>
    </diagram>
</mxfile>
